<svg xmlns="http://www.w3.org/2000/svg" viewBox="0 0 1024 1024" width="1024" height="1024">
  <path d="M256 256m64 0l384 0q64 0 64 64l0 384q0 64-64 64l-384 0q-64 0-64-64l0-384q0-64 64-64Z" fill="#7bf1a8"></path>
  <path d="M320 256h80v512h-80c-35.346 0-64-28.654-64-64V320c0-35.346 28.654-64 64-64z" fill="#b9f8cf"></path>
  <path d="M446 698c-15.464 0-28-12.536-28-28s12.536-28 28-28 28 12.536 28 28-12.536 28-28 28z m-92 0c-15.464 0-28-12.536-28-28s12.536-28 28-28 28 12.536 28 28-12.536 28-28 28z m92-158c-15.464 0-28-12.536-28-28s12.536-28 28-28 28 12.536 28 28-12.536 28-28 28z m-92 0c-15.464 0-28-12.536-28-28s12.536-28 28-28 28 12.536 28 28-12.536 28-28 28z m92-158c-15.464 0-28-12.536-28-28s12.536-28 28-28 28 12.536 28 28-12.536 28-28 28z m-92 0c-15.464 0-28-12.536-28-28s12.536-28 28-28 28 12.536 28 28-12.536 28-28 28z" fill="#008236"></path>
  <path d="M354 652h92c9.941 0 18 8.059 18 18s-8.059 18-18 18h-92c-9.941 0-18-8.059-18-18s8.059-18 18-18z m0-158h92c9.941 0 18 8.059 18 18s-8.059 18-18 18h-92c-9.941 0-18-8.059-18-18s8.059-18 18-18z m0-158h92c9.941 0 18 8.059 18 18s-8.059 18-18 18h-92c-9.941 0-18-8.059-18-18s8.059-18 18-18z" fill="#ffffff"></path>
</svg>
